<svg width="95" height="64" viewBox="0 0 95 64" fill="none" xmlns="http://www.w3.org/2000/svg">
<path d="M0.676 26L11.908 0.799998H17.668L28.936 26H22.816L13.6 3.752H15.904L6.652 26H0.676ZM6.292 20.6L7.84 16.172H20.8L22.384 20.6H6.292ZM31.5505 26V0.799998H42.4585C44.7145 0.799998 46.6585 1.172 48.2905 1.916C49.9225 2.636 51.1825 3.68 52.0705 5.048C52.9585 6.416 53.4025 8.048 53.4025 9.944C53.4025 11.816 52.9585 13.436 52.0705 14.804C51.1825 16.148 49.9225 17.18 48.2905 17.9C46.6585 18.62 44.7145 18.98 42.4585 18.98H34.7905L37.3825 16.424V26H31.5505ZM47.5705 26L41.2705 16.856H47.4985L53.8705 26H47.5705ZM37.3825 17.072L34.7905 14.336H42.1345C43.9345 14.336 45.2785 13.952 46.1665 13.184C47.0545 12.392 47.4985 11.312 47.4985 9.944C47.4985 8.552 47.0545 7.472 46.1665 6.704C45.2785 5.936 43.9345 5.552 42.1345 5.552H34.7905L37.3825 2.78V17.072ZM62.8916 26V5.552H54.8276V0.799998H76.7876V5.552H68.7236V26H62.8916ZM76.9375 29.24V26H94.9375V29.24H76.9375ZM11.946 58.208C10.542 58.208 9.25067 57.9827 8.072 57.532C6.89333 57.064 5.87067 56.414 5.004 55.582C4.13733 54.7327 3.46133 53.7447 2.976 52.618C2.49067 51.4913 2.248 50.252 2.248 48.9C2.248 47.548 2.49067 46.3087 2.976 45.182C3.46133 44.0553 4.13733 43.076 5.004 42.244C5.888 41.3947 6.91933 40.7447 8.098 40.294C9.27667 39.826 10.5767 39.592 11.998 39.592C13.4367 39.592 14.754 39.826 15.95 40.294C17.146 40.762 18.16 41.464 18.992 42.4L17.38 44.012C16.6347 43.284 15.82 42.7553 14.936 42.426C14.0693 42.0793 13.1247 41.906 12.102 41.906C11.062 41.906 10.0913 42.0793 9.19 42.426C8.306 42.7727 7.53467 43.258 6.876 43.882C6.23467 44.506 5.732 45.2513 5.368 46.118C5.02133 46.9673 4.848 47.8947 4.848 48.9C4.848 49.888 5.02133 50.8153 5.368 51.682C5.732 52.5313 6.23467 53.2767 6.876 53.918C7.53467 54.542 8.306 55.0273 9.19 55.374C10.074 55.7207 11.036 55.894 12.076 55.894C13.0467 55.894 13.974 55.7467 14.858 55.452C15.7593 55.14 16.5913 54.6287 17.354 53.918L18.836 55.894C17.9347 56.6567 16.8773 57.2373 15.664 57.636C14.468 58.0173 13.2287 58.208 11.946 58.208ZM16.34 55.556V48.796H18.836V55.894L16.34 55.556ZM32.004 58V55.088L31.874 54.542V49.576C31.874 48.5187 31.562 47.704 30.938 47.132C30.3313 46.5427 29.4127 46.248 28.182 46.248C27.3673 46.248 26.57 46.3867 25.79 46.664C25.01 46.924 24.3513 47.2793 23.814 47.73L22.774 45.858C23.4847 45.286 24.334 44.8527 25.322 44.558C26.3273 44.246 27.376 44.09 28.468 44.09C30.3573 44.09 31.8133 44.5493 32.836 45.468C33.8587 46.3867 34.37 47.7907 34.37 49.68V58H32.004ZM27.48 58.156C26.4573 58.156 25.556 57.9827 24.776 57.636C24.0133 57.2893 23.424 56.8127 23.008 56.206C22.592 55.582 22.384 54.88 22.384 54.1C22.384 53.3547 22.5573 52.6787 22.904 52.072C23.268 51.4653 23.8487 50.98 24.646 50.616C25.4607 50.252 26.5527 50.07 27.922 50.07H32.29V51.864H28.026C26.778 51.864 25.9373 52.072 25.504 52.488C25.0707 52.904 24.854 53.4067 24.854 53.996C24.854 54.672 25.1227 55.218 25.66 55.634C26.1973 56.0327 26.9427 56.232 27.896 56.232C28.832 56.232 29.6467 56.024 30.34 55.608C31.0507 55.192 31.562 54.5853 31.874 53.788L32.368 55.504C32.0387 56.3187 31.458 56.9687 30.626 57.454C29.794 57.922 28.7453 58.156 27.48 58.156ZM38.989 58V38.708H41.485V58H38.989ZM46.2508 58V38.708H48.7468V58H46.2508ZM59.6485 58.156C58.1752 58.156 56.8752 57.8527 55.7485 57.246C54.6392 56.6393 53.7725 55.8073 53.1485 54.75C52.5418 53.6927 52.2385 52.4793 52.2385 51.11C52.2385 49.7407 52.5332 48.5273 53.1225 47.47C53.7292 46.4127 54.5525 45.5893 55.5925 45C56.6498 44.3933 57.8372 44.09 59.1545 44.09C60.4892 44.09 61.6678 44.3847 62.6905 44.974C63.7132 45.5633 64.5105 46.3953 65.0825 47.47C65.6718 48.5273 65.9665 49.7667 65.9665 51.188C65.9665 51.292 65.9578 51.4133 65.9405 51.552C65.9405 51.6907 65.9318 51.8207 65.9145 51.942H54.1885V50.148H64.6145L63.6005 50.772C63.6178 49.888 63.4358 49.0993 63.0545 48.406C62.6732 47.7127 62.1445 47.1753 61.4685 46.794C60.8098 46.3953 60.0385 46.196 59.1545 46.196C58.2878 46.196 57.5165 46.3953 56.8405 46.794C56.1645 47.1753 55.6358 47.7213 55.2545 48.432C54.8732 49.1253 54.6825 49.9227 54.6825 50.824V51.24C54.6825 52.1587 54.8905 52.982 55.3065 53.71C55.7398 54.4207 56.3378 54.9753 57.1005 55.374C57.8632 55.7727 58.7385 55.972 59.7265 55.972C60.5412 55.972 61.2778 55.8333 61.9365 55.556C62.6125 55.2787 63.2018 54.8627 63.7045 54.308L65.0825 55.92C64.4585 56.648 63.6785 57.2027 62.7425 57.584C61.8238 57.9653 60.7925 58.156 59.6485 58.156ZM69.4324 58V44.22H71.8244V47.964L71.5904 47.028C71.9717 46.0747 72.6131 45.3467 73.5144 44.844C74.4157 44.3413 75.5251 44.09 76.8424 44.09V46.508C76.7384 46.4907 76.6344 46.482 76.5304 46.482C76.4437 46.482 76.3571 46.482 76.2704 46.482C74.9357 46.482 73.8784 46.8807 73.0984 47.678C72.3184 48.4753 71.9284 49.628 71.9284 51.136V58H69.4324ZM81.0753 63.2C80.4167 63.2 79.7753 63.0873 79.1513 62.862C78.5273 62.654 77.99 62.342 77.5393 61.926L78.6053 60.054C78.952 60.3833 79.3333 60.6347 79.7493 60.808C80.1653 60.9813 80.6073 61.068 81.0753 61.068C81.682 61.068 82.1847 60.912 82.5833 60.6C82.982 60.288 83.3547 59.7333 83.7013 58.936L84.5593 57.038L84.8193 56.726L90.2273 44.22H92.6713L85.9893 59.378C85.5907 60.3487 85.14 61.1113 84.6373 61.666C84.152 62.2207 83.6147 62.6107 83.0253 62.836C82.436 63.0787 81.786 63.2 81.0753 63.2ZM84.3513 58.442L78.0593 44.22H80.6593L86.0153 56.492L84.3513 58.442Z" fill="black"/>
</svg>
